<svg xmlns="http://www.w3.org/2000/svg" width="100" height="100"><defs><mask id="prefix__a" fill="#000"><rect width="100%" height="100%" fill="#fff"/><circle cx="30.5" cy="36.7" r="22"/><path d="M20.2 54.6h23.1v7.9H20.2z"/><ellipse cx="40.6" cy="62.5" rx="2.7" ry="2.1"/><path d="M18.7 62h22v2.7h-22zM21.8 69.7h18.4v5H21.8z"/><path d="M22.1 73.5h16v3h-16z"/><ellipse cx="38" cy="74.3" rx="2.2" ry="2.1"/></mask></defs><path d="M13.764 81.141c0 1.998 1.665 3.33 3.33 3.33h13.32c1.998 0 3.33-1.665 3.33-3.33v-3.33h-19.98v3.33zm9.99-63.27c-12.987 0-23.31 10.323-23.31 23.31 0 7.992 3.996 14.985 9.99 18.981v7.659c0 1.998 1.665 3.33 3.33 3.33h19.98c1.998 0 3.33-1.665 3.33-3.33v-7.659c5.994-4.329 9.99-11.322 9.99-18.981 0-12.987-10.323-23.31-23.31-23.31zm6.66 38.961v7.659h-13.32v-7.659c-4.995-3.663-9.99-7.326-9.99-15.651 0-9.324 7.326-16.65 16.65-16.65s16.65 7.326 16.65 16.65c0 8.325-4.995 12.321-9.99 15.651z"/><g mask="url(#prefix__a)" transform="translate(-10.434) scale(1.11)"><path d="M86.6 19.1l-15 15v33l15-13.5V19.1zm-54 15v44.1c0 .9.9 1.5 1.5 1.5.3 0 .6-.3.9-.3 3.9-2.1 9.6-3.3 14.1-3.3 5.7 0 12.3 1.2 16.5 4.5V34.1c-4.5-3.3-10.8-4.5-16.5-4.5s-12.3 1.2-16.5 4.5zm66 40.5V34.1c-1.8-1.5-3.9-2.4-6-3v40.5c-3.3-1.2-6.9-1.5-10.5-1.5-5.1 0-12.6 1.8-16.5 4.5v6c3.9-2.7 11.4-4.5 16.5-4.5s10.2.9 14.4 3c.3.3.3.3.9.3.9 0 1.5-.9 1.5-1.5v-3.3z"/></g></svg>