<?xml version="1.0" encoding="UTF-8" standalone="no"?>
<!DOCTYPE svg
  PUBLIC "-//W3C//DTD SVG 20010904//EN" "http://www.w3.org/TR/2001/REC-SVG-20010904/DTD/svg10.dtd">

<svg xmlns="http://www.w3.org/2000/svg"
  width="100px"
  height="100px"
  viewBox="0 0 100 100">
  <defs>
    <mask id="bulbMask"
      fill="black">
      <rect width="100%"
        height="100%"
        fill="white" />
      <ellipse cx="30.5"
        cy="36.7"
        rx="22"
        ry="22" />
      <rect x="20.2"
        y="54.6"
        width="23.1"
        height="7.9" />
      <ellipse cx="40.6"
        cy="62.5"
        rx="2.7"
        ry="2.1" />
      <rect x="18.7"
        y="62"
        width="22"
        height="2.7" />
      <rect x="21.8"
        y="69.7"
        width="18.4"
        height="5" />
      <rect x="22.1"
        y="73.5"
        width="16"
        height="3" />
      <ellipse cx="38"
        cy="74.3"
        rx="2.2"
        ry="2.1" />
    </mask>
  </defs>

  <!-- <rect width="100"
    height="100"
    fill="grey" /> -->

  <g transform="scale(1.11) translate(-9.4, -0)">
    <g id="lightOff"
      transform="matrix(3,0,0,3,-7,-5.8)">
      <path
        d="M 9.6 26.3 c 0 0.6 0.5 1 1 1 h 4 c 0.6 0 1 -0.5 1 -1 v -1 H 9.6 V 26.3 z M 12.6 7.3 C 8.7 7.3 5.6 10.4 5.6 14.3 c 0 2.4 1.2 4.5 3 5.7 V 22.3 c 0 0.6 0.5 1 1 1 h 6 c 0.6 0 1 -0.5 1 -1 v -2.3 c 1.8 -1.3 3 -3.4 3 -5.7 C 19.6 10.4 16.5 7.3 12.6 7.3 z M 14.6 19 V 21.3 h -4 v -2.3 C 9.1 17.9 7.6 16.8 7.6 14.3 c 0 -2.8 2.2 -5 5 -5 s 5 2.2 5 5 C 17.6 16.8 16.1 18 14.6 19 z" />
    </g>
    <!-- <g id="lightOn"
      fill="white"
      transform="matrix(3,0,0,3,-7,-5.8)">
      <path
        d="M 9.6 26.3 c 0 0.5 0.4 1 1 1 h 4 c 0.6 0 1 -0.5 1 -1 v -1 H 9.6 v 1 z m 3 -19 C 8.7 7.3 5.6 10.4 5.6 14.3 c 0 2.4 1.2 4.5 3 5.7 V 22.3 c 0 0.5 0.4 1 1 1 h 6 c 0.6 0 1 -0.5 1 -1 v -2.3 c 1.8 -1.3 3 -3.4 3 -5.7 c 0 -3.9 -3.1 -7 -7 -7 z" />
    </g> -->
    <g mask="url(#bulbMask)"
      id="book">
      <g transform="matrix(3,0,0,3,-7,-5.8)">
        <path fill="black"
          d="M 31.2 8.3 l -5 5 v 11 l 5 -4.5 V 8.3 z M 13.2 13.3 v 14.7 c 0 0.3 0.3 0.5 0.5 0.5 c 0.1 0 0.2 -0.1 0.3 -0.1 C 15.3 27.7 17.2 27.3 18.7 27.3 c 1.9 0 4.1 0.4 5.5 1.5 V 13.3 c -1.5 -1.1 -3.6 -1.5 -5.5 -1.5 S 14.6 12.2 13.2 13.3 z m 22 13.5 V 13.3 c -0.6 -0.5 -1.3 -0.8 -2 -1 v 13.5 c -1.1 -0.4 -2.3 -0.5 -3.5 -0.5 c -1.7 0 -4.2 0.6 -5.5 1.5 v 2 c 1.3 -0.9 3.8 -1.5 5.5 -1.5 c 1.7 0 3.4 0.3 4.8 1 c 0.1 0.1 0.1 0.1 0.3 0.1 c 0.3 0 0.5 -0.3 0.5 -0.5 v -1.1 z" />
      </g>
    </g>
  </g>
</svg>
