<svg xmlns="http://www.w3.org/2000/svg" width="100" height="100"><defs><mask id="prefix__a" fill="#000"><rect width="100%" height="100%" fill="#fff"/><circle cx="30.5" cy="36.7" r="22"/><path d="M20.2 54.6h23.13v7.9H20.2z"/><ellipse cx="40.6" cy="62.5" rx="2.7" ry="2.15"/><path d="M18.7 62h22v2.67h-22zM21.8 69.7h18.4v5H21.8z"/><path d="M22.1 73.5h16v3h-16z"/><ellipse cx="38" cy="74.3" rx="2.2" ry="2.15"/></mask></defs><path d="M21.8 73.1c0 1.8 1.5 3 3 3h12c1.8 0 3-1.5 3-3v-3h-18v3zm9-57c-11.7 0-21 9.3-21 21 0 7.2 3.6 13.5 9 17.1v6.9c0 1.8 1.5 3 3 3h18c1.8 0 3-1.5 3-3v-6.9c5.4-3.9 9-10.2 9-17.1 0-11.7-9.3-21-21-21zm6 35.1v6.9h-12v-6.9c-4.5-3.3-9-6.6-9-14.1 0-8.4 6.6-15 15-15s15 6.6 15 15c0 7.5-4.5 11.1-9 14.1z"/><g mask="url(#prefix__a)"><path d="M86.6 19.1l-15 15v33l15-13.5V19.1zm-54 15v44.1c0 .9.9 1.5 1.5 1.5.3 0 .6-.3.9-.3 3.9-2.1 9.6-3.3 14.1-3.3 5.7 0 12.3 1.2 16.5 4.5V34.1c-4.5-3.3-10.8-4.5-16.5-4.5s-12.3 1.2-16.5 4.5zm66 40.5V34.1c-1.8-1.5-3.9-2.4-6-3v40.5c-3.3-1.2-6.9-1.5-10.5-1.5-5.1 0-12.6 1.8-16.5 4.5v6c3.9-2.7 11.4-4.5 16.5-4.5s10.2.9 14.4 3c.3.3.3.3.9.3.9 0 1.5-.9 1.5-1.5v-3.3z"/></g></svg>